<svg version="1.1" id="Layer_1" xmlns="http://www.w3.org/2000/svg" xmlns:xlink="http://www.w3.org/1999/xlink" x="0px" y="0px"
	 width="100%" viewBox="0 0 363 374" enable-background="new 0 0 363 374" xml:space="preserve">
<path fill="#FCFCFC" opacity="1.000000" stroke="none" 
	d="
M93.430061,259.495605 
	C90.969879,261.232361 88.760582,262.713074 86.551292,264.193787 
	C86.185539,261.644867 85.504524,259.096405 85.500870,256.546967 
	C85.436241,211.411255 85.448036,166.275421 85.473267,121.139626 
	C85.474442,119.050301 85.755447,116.961128 85.997314,113.607506 
	C88.409035,115.325226 90.080139,116.210121 91.368401,117.482613 
	C99.660667,125.673347 107.885429,133.932724 116.099876,142.201843 
	C122.335045,148.478500 124.402977,148.515472 130.808044,142.112381 
	C159.536392,113.392860 188.230789,84.639336 217.002945,55.963814 
	C219.030533,53.943020 221.587738,52.453629 223.898682,50.717148 
	C224.359161,53.508480 225.198959,56.297188 225.218307,59.091579 
	C225.340576,76.745331 225.153641,94.401619 225.329590,112.054466 
	C225.433594,122.489326 221.808884,131.207352 214.499146,138.507217 
	C175.272812,177.680466 136.043533,216.850754 96.817657,256.024445 
	C95.758324,257.082397 94.725914,258.167267 93.430061,259.495605 
z"/>
<path fill="#FDFDFD" opacity="1.000000" stroke="none" 
	d="
M226.104156,233.104385 
	C197.425446,261.577667 169.349579,290.163727 140.735397,318.196228 
	C140.195007,317.864410 139.654617,317.532593 139.114212,317.200775 
	C138.960068,315.640564 138.673477,314.080444 138.671906,312.520081 
	C138.652512,293.199646 138.670410,273.879181 138.687927,254.558716 
	C138.696167,245.476379 141.789307,237.552582 148.184967,231.142380 
	C189.932205,189.299973 231.737198,147.515182 273.572388,105.760704 
	C274.507111,104.827805 276.022369,104.476555 277.266815,103.853989 
	C277.688263,105.187721 278.476807,106.521111 278.478058,107.855240 
	C278.522339,154.990417 278.501678,202.125687 278.432281,249.260849 
	C278.430115,250.745544 277.818512,252.229340 277.258362,254.767853 
	C275.086731,252.867233 273.698425,251.784088 272.462036,250.548874 
	C263.863098,241.957977 255.293152,233.338028 246.719208,224.722137 
	C242.095779,220.076065 239.292114,220.070282 234.504654,224.761414 
	C231.770096,227.440964 229.069962,230.155640 226.104156,233.104385 
z"/>
</svg>